<?xml version="1.0" encoding="UTF-8" standalone="no"?>
<!-- Created with Inkscape (http://www.inkscape.org/) -->

<svg
   version="1.1"
   id="svg2"
   xml:space="preserve"
   width="515"
   height="118.30667"
   viewBox="0 0 515 118.30667"
   sodipodi:docname="aspire-ckmy.svg"
   inkscape:version="1.1.1 (1:1.1+202109281944+c3084ef5ed)"
   xmlns:inkscape="http://www.inkscape.org/namespaces/inkscape"
   xmlns:sodipodi="http://sodipodi.sourceforge.net/DTD/sodipodi-0.dtd"
   xmlns="http://www.w3.org/2000/svg"
   xmlns:svg="http://www.w3.org/2000/svg"><defs
     id="defs6" /><sodipodi:namedview
     id="namedview4"
     pagecolor="#ffffff"
     bordercolor="#666666"
     borderopacity="1.0"
     inkscape:pageshadow="2"
     inkscape:pageopacity="0.0"
     inkscape:pagecheckerboard="0"
     showgrid="false"
     inkscape:zoom="0.67524272"
     inkscape:cx="287.3041"
     inkscape:cy="234.73041"
     inkscape:window-width="1852"
     inkscape:window-height="1016"
     inkscape:window-x="68"
     inkscape:window-y="324"
     inkscape:window-maximized="1"
     inkscape:current-layer="g8" /><g
     id="g8"
     inkscape:groupmode="layer"
     inkscape:label="ink_ext_XXXXXX"
     transform="matrix(1.3333333,0,0,-1.3333333,0,118.30667)"><path
       d="m 98.0992,26.2945 h -0.114 v -0.5207 h 0.1824 c 0.207,0 0.3484,0.0727 0.3484,0.2785 0,0.2071 -0.2101,0.2422 -0.4168,0.2422 z m -0.584,-1.4785 v 1.7949 c 0.1114,0 0.845,-0.0039 0.8696,-0.0046 0.3472,-0.0254 0.5929,-0.177 0.5929,-0.5208 0,-0.2761 -0.1566,-0.4167 -0.4371,-0.4472 0.5492,-0.1145 0.2949,-0.3594 0.4457,-0.8223 h -0.4476 c -0.0274,0.1055 -0.0328,0.3985 -0.0594,0.468 -0.0664,0.1785 -0.2977,0.1668 -0.4941,0.1668 V 24.816 Z m -0.6281,0.9004 c 0,-0.748 0.5891,-1.3476 1.3371,-1.3476 0.7426,0 1.3328,0.6027 1.3328,1.3476 0,0.7195 -0.5882,1.3418 -1.3328,1.3418 -0.748,0 -1.3371,-0.6133 -1.3371,-1.3418 z m 1.3371,-1.618 c -0.9156,0 -1.6179,0.702 -1.6179,1.618 0,0.9531 0.7589,1.6184 1.6179,1.6184 0.8992,0 1.6188,-0.7192 1.6188,-1.6184 0,-0.9246 -0.7285,-1.618 -1.6188,-1.618 z M 71.5656,36.8172 v -9.009 c -8e-4,-0.2012 -0.0789,-0.3945 -0.2207,-0.5383 -1.5617,-1.5769 -6.2285,-4.5816 -12.9445,-4.5816 -6.7152,0 -11.382,3.0047 -12.9438,4.5816 -0.1421,0.1438 -0.2203,0.3371 -0.2203,0.5383 v 7.1211 L 37.943,41.4508 V 26.2867 c 4e-4,-0.2246 0.0754,-0.4441 0.2121,-0.623 4.6969,-6.1426 12.5539,-8.6883 20.2453,-8.6883 7.6922,0 15.5484,2.5457 20.2461,8.6883 0.1363,0.1789 0.2105,0.3984 0.2105,0.623 v 10.5281 l -3.6429,-4.814 z M 96.082,56.6434 h 3.761 v 5.3363 H 86.3469 L 75.2141,47.2766 64.0813,61.9797 H 50.5875 v -5.3363 h 3.7582 c 0.2832,0 0.5129,-0.2293 0.5129,-0.5125 V 38.6949 L 28.8121,61.9797 H 16.9473 v -5.3363 h 3.7535 c 0.2828,0 0.5121,-0.2293 0.5121,-0.5125 v -21.095 c 0,-0.2836 -0.2293,-0.5129 -0.5121,-0.5129 h -3.7535 v -5.3359 h 15.6015 v 5.3359 h -3.5304 c -0.2832,0 -0.5125,0.2293 -0.5125,0.5129 v 17.436 L 54.5508,29.1871 h 7.6004 V 52.448 L 75.2141,35.1949 88.2773,52.448 V 35.0348 C 88.277,34.7523 88.048,34.523 87.7652,34.523 H 84.234 v -5.3359 h 15.609 v 5.3359 h -3.7606 c -0.2832,0 -0.5121,0.2293 -0.5121,0.5129 v 21.095 c 0,0.2832 0.2289,0.5125 0.5117,0.5125 z M 71.5773,65.9039 V 55.277 l 3.6368,-4.8063 3.6554,4.8254 v 10.6082 c 8e-4,0.2828 0.2321,0.5125 0.5149,0.5125 h 3.7597 v 5.3355 H 67.3098 v -5.3355 h 3.7578 c 0.2828,0 0.5097,-0.2297 0.5097,-0.5129 z m -34.1609,0.5129 h -3.7598 v 5.3355 H 49.4918 V 66.4168 H 45.734 c -0.2828,0 -0.5086,-0.2297 -0.5086,-0.5129 V 49.8902 l -7.2941,6.5219 v 9.4922 c -4e-4,0.2828 -0.2317,0.5125 -0.5149,0.5125"
       style="fill:#ba0c2f;fill-opacity:1;fill-rule:nonzero;stroke:none;stroke-width:0.1"
       id="path12" /><path
       d="m 115.463,60.132 v 0.0352 c 0,3.4305 2.568,6.241 6.207,6.241 2.241,0 3.585,-0.7754 4.741,-1.8789 l -1.362,-1.5691 c -0.983,0.8964 -2.001,1.4824 -3.397,1.4824 -2.275,0 -3.966,-1.8789 -3.966,-4.2414 v -0.034 c 0,-2.3625 1.673,-4.2766 3.984,-4.2766 1.482,0 2.431,0.586 3.465,1.552 l 1.363,-1.3789 c -1.259,-1.3106 -2.639,-2.1387 -4.898,-2.1387 -3.534,0 -6.137,2.741 -6.137,6.207"
       style="fill:#555e6e;fill-opacity:1;fill-rule:nonzero;stroke:none;stroke-width:0.1"
       id="path14" /><path
       d="m 128.349,66.2012 h 8.949 v -1.8965 h -6.828 v -3.1375 h 6.052 v -1.9141 h -6.052 v -3.2246 h 6.914 V 54.132 h -9.035 v 12.0692"
       style="fill:#555e6e;fill-opacity:1;fill-rule:nonzero;stroke:none;stroke-width:0.1"
       id="path16" /><path
       d="m 139.693,66.2012 h 1.966 l 6.466,-8.3446 v 8.3446 h 2.086 V 54.132 h -1.775 l -6.657,8.5868 V 54.132 h -2.086 v 12.0692"
       style="fill:#555e6e;fill-opacity:1;fill-rule:nonzero;stroke:none;stroke-width:0.1"
       id="path18" /><path
       d="m 155.795,64.2363 h -3.845 v 1.9649 h 9.811 v -1.9649 h -3.845 V 54.132 h -2.121 v 10.1043"
       style="fill:#555e6e;fill-opacity:1;fill-rule:nonzero;stroke:none;stroke-width:0.1"
       id="path20" /><path
       d="m 163.498,66.2012 h 8.949 v -1.8965 h -6.828 v -3.1375 h 6.052 v -1.9141 h -6.052 v -3.2246 h 6.914 V 54.132 h -9.035 v 12.0692"
       style="fill:#555e6e;fill-opacity:1;fill-rule:nonzero;stroke:none;stroke-width:0.1"
       id="path22" /><path
       d="m 180.066,60.2188 c 1.518,0 2.483,0.7929 2.483,2.0167 v 0.0352 c 0,1.293 -0.931,2 -2.5,2 h -3.086 v -4.0519 z m -5.224,5.9824 h 5.38 c 1.517,0 2.707,-0.4481 3.482,-1.2071 0.639,-0.655 1,-1.5515 1,-2.6035 v -0.034 c 0,-1.9824 -1.189,-3.173 -2.862,-3.6554 l 3.26,-4.5692 h -2.518 l -2.966,4.2071 h -2.655 V 54.132 h -2.121 v 12.0692"
       style="fill:#555e6e;fill-opacity:1;fill-rule:nonzero;stroke:none;stroke-width:0.1"
       id="path24" /><path
       d="m 191.798,66.2012 h 8.983 v -1.9305 h -6.862 v -3.293 h 6.086 v -1.9316 h -6.086 V 54.132 h -2.121 v 12.0692"
       style="fill:#555e6e;fill-opacity:1;fill-rule:nonzero;stroke:none;stroke-width:0.1"
       id="path26" /><path
       d="m 212.319,60.132 v 0.0352 c 0,2.3445 -1.707,4.2754 -4.103,4.2754 -2.397,0 -4.069,-1.8965 -4.069,-4.2414 v -0.034 c 0,-2.3457 1.707,-4.2766 4.104,-4.2766 2.397,0 4.068,1.8965 4.068,4.2414 z m -10.396,0 v 0.0352 c 0,3.3965 2.62,6.241 6.328,6.241 3.707,0 6.293,-2.8105 6.293,-6.207 v -0.034 c 0,-3.3977 -2.621,-6.2422 -6.328,-6.2422 -3.707,0 -6.293,2.8105 -6.293,6.207"
       style="fill:#555e6e;fill-opacity:1;fill-rule:nonzero;stroke:none;stroke-width:0.1"
       id="path28" /><path
       d="m 222.078,60.2188 c 1.518,0 2.483,0.7929 2.483,2.0167 v 0.0352 c 0,1.293 -0.931,2 -2.5,2 h -3.086 v -4.0519 z m -5.224,5.9824 h 5.379 c 1.518,0 2.708,-0.4481 3.483,-1.2071 0.639,-0.655 1,-1.5515 1,-2.6035 v -0.034 c 0,-1.9824 -1.19,-3.173 -2.862,-3.6554 l 3.259,-4.5692 h -2.517 l -2.966,4.2071 h -2.655 V 54.132 h -2.121 v 12.0692"
       style="fill:#555e6e;fill-opacity:1;fill-rule:nonzero;stroke:none;stroke-width:0.1"
       id="path30" /><path
       d="m 241.12,58.925 -2.086,4.8281 -2.069,-4.8281 z m -3.034,7.3633 h 1.966 l 5.31,-12.1563 h -2.242 l -1.223,2.9141 h -5.707 l -1.243,-2.9141 h -2.172 l 5.311,12.1563"
       style="fill:#555e6e;fill-opacity:1;fill-rule:nonzero;stroke:none;stroke-width:0.1"
       id="path32" /><path
       d="m 249.163,64.2707 v -8.207 h 2.379 c 2.535,0 4.191,1.7058 4.191,4.0683 v 0.0352 c 0,2.3621 -1.656,4.1035 -4.191,4.1035 z m -2.121,1.9305 h 4.5 c 3.794,0 6.414,-2.6035 6.414,-6 v -0.034 c 0,-3.3977 -2.62,-6.0352 -6.414,-6.0352 h -4.5 v 12.0692"
       style="fill:#555e6e;fill-opacity:1;fill-rule:nonzero;stroke:none;stroke-width:0.1"
       id="path34" /><path
       d="m 258.44,66.2012 h 2.344 l 3.638,-9.2762 3.621,9.2762 h 2.293 l -5,-12.1551 h -1.896 l -5,12.1551"
       style="fill:#555e6e;fill-opacity:1;fill-rule:nonzero;stroke:none;stroke-width:0.1"
       id="path36" /><path
       d="m 278.042,58.925 -2.086,4.8281 -2.069,-4.8281 z m -3.034,7.3633 h 1.966 l 5.31,-12.1563 h -2.242 l -1.224,2.9141 h -5.707 l -1.242,-2.9141 h -2.172 l 5.311,12.1563"
       style="fill:#555e6e;fill-opacity:1;fill-rule:nonzero;stroke:none;stroke-width:0.1"
       id="path38" /><path
       d="m 283.964,66.2012 h 1.966 l 6.466,-8.3446 v 8.3446 h 2.086 V 54.132 h -1.776 l -6.656,8.5868 V 54.132 h -2.086 v 12.0692"
       style="fill:#555e6e;fill-opacity:1;fill-rule:nonzero;stroke:none;stroke-width:0.1"
       id="path40" /><path
       d="m 296.782,60.132 v 0.0352 c 0,3.4305 2.57,6.241 6.207,6.241 2.242,0 3.586,-0.7754 4.742,-1.8789 l -1.362,-1.5691 c -0.983,0.8964 -2.001,1.4824 -3.397,1.4824 -2.276,0 -3.966,-1.8789 -3.966,-4.2414 v -0.034 c 0,-2.3625 1.673,-4.2766 3.983,-4.2766 1.483,0 2.431,0.586 3.466,1.552 l 1.362,-1.3789 c -1.258,-1.3106 -2.638,-2.1387 -4.897,-2.1387 -3.534,0 -6.138,2.741 -6.138,6.207"
       style="fill:#555e6e;fill-opacity:1;fill-rule:nonzero;stroke:none;stroke-width:0.1"
       id="path42" /><path
       d="m 309.67,66.2012 h 8.949 v -1.8965 h -6.828 v -3.1375 h 6.052 v -1.9141 h -6.052 v -3.2246 h 6.914 V 54.132 h -9.035 v 12.0692"
       style="fill:#555e6e;fill-opacity:1;fill-rule:nonzero;stroke:none;stroke-width:0.1"
       id="path44" /><path
       d="m 321.013,66.2012 h 2.259 l 3.672,-5.7071 3.673,5.7071 h 2.259 V 54.132 h -2.121 v 8.6551 l -3.811,-5.6894 h -0.069 l -3.776,5.6554 V 54.132 h -2.086 v 12.0692"
       style="fill:#555e6e;fill-opacity:1;fill-rule:nonzero;stroke:none;stroke-width:0.1"
       id="path46" /><path
       d="m 335.8,66.2012 h 8.949 v -1.8965 h -6.828 v -3.1375 h 6.052 v -1.9141 h -6.052 v -3.2246 h 6.914 V 54.132 H 335.8 v 12.0692"
       style="fill:#555e6e;fill-opacity:1;fill-rule:nonzero;stroke:none;stroke-width:0.1"
       id="path48" /><path
       d="m 347.144,66.2012 h 1.965 l 6.466,-8.3446 v 8.3446 h 2.086 V 54.132 h -1.775 l -6.656,8.5868 V 54.132 h -2.086 v 12.0692"
       style="fill:#555e6e;fill-opacity:1;fill-rule:nonzero;stroke:none;stroke-width:0.1"
       id="path50" /><path
       d="M 363.244,64.2363 H 359.4 v 1.9649 h 9.81 v -1.9649 h -3.845 V 54.132 h -2.121 v 10.1043"
       style="fill:#555e6e;fill-opacity:1;fill-rule:nonzero;stroke:none;stroke-width:0.1"
       id="path52" /><path
       d="m 125.859,44.5527 v 0.0352 c 0,2.3449 -1.707,4.2754 -4.104,4.2754 -2.396,0 -4.069,-1.8965 -4.069,-4.241 v -0.0344 c 0,-2.3461 1.707,-4.277 4.105,-4.277 2.396,0 4.068,1.8965 4.068,4.2418 z m -10.396,0 v 0.0352 c 0,3.3965 2.62,6.2414 6.328,6.2414 3.707,0 6.293,-2.8105 6.293,-6.207 v -0.0344 c 0,-3.3981 -2.621,-6.2426 -6.329,-6.2426 -3.707,0 -6.292,2.8106 -6.292,6.2074"
       style="fill:#555e6e;fill-opacity:1;fill-rule:nonzero;stroke:none;stroke-width:0.1"
       id="path54" /><path
       d="m 130.393,50.6223 h 8.984 v -1.9309 h -6.863 v -3.293 h 6.086 v -1.9316 h -6.086 v -4.9145 h -2.121 v 12.07"
       style="fill:#555e6e;fill-opacity:1;fill-rule:nonzero;stroke:none;stroke-width:0.1"
       id="path56" /><path
       d="m 145.384,40.3109 1.276,1.5176 c 1.156,-1 2.327,-1.5691 3.811,-1.5691 1.31,0 2.137,0.6211 2.137,1.5176 v 0.0339 c 0,0.8625 -0.482,1.3286 -2.723,1.8454 -2.569,0.621 -4.018,1.38 -4.018,3.6035 v 0.0351 c 0,2.0684 1.724,3.5 4.12,3.5 1.759,0 3.157,-0.534 4.38,-1.5176 l -1.137,-1.6035 c -1.087,0.8106 -2.173,1.2414 -3.277,1.2414 -1.241,0 -1.966,-0.6379 -1.966,-1.4308 v -0.034 c 0,-0.9316 0.552,-1.3457 2.88,-1.8977 2.552,-0.6199 3.863,-1.5339 3.863,-3.5343 V 41.984 c 0,-2.2586 -1.777,-3.6043 -4.311,-3.6043 -1.845,0 -3.587,0.6387 -5.035,1.9312"
       style="fill:#555e6e;fill-opacity:1;fill-rule:nonzero;stroke:none;stroke-width:0.1"
       id="path58" /><path
       d="m 161.547,44.3469 c 1.603,0 2.603,0.8965 2.603,2.1551 v 0.0343 c 0,1.4141 -1.017,2.1551 -2.603,2.1551 h -2.466 v -4.3445 z m -4.587,6.2754 h 4.759 c 2.828,0 4.587,-1.6035 4.587,-4.0344 v -0.034 c 0,-2.7082 -2.173,-4.1219 -4.828,-4.1219 h -2.397 v -3.8797 h -2.121 v 12.07"
       style="fill:#555e6e;fill-opacity:1;fill-rule:nonzero;stroke:none;stroke-width:0.1"
       id="path60" /><path
       d="m 174.415,43.3453 -2.086,4.8285 -2.069,-4.8285 z m -3.034,7.3637 h 1.966 l 5.31,-12.1567 h -2.242 l -1.224,2.9141 h -5.707 l -1.242,-2.9141 h -2.172 l 5.311,12.1567"
       style="fill:#555e6e;fill-opacity:1;fill-rule:nonzero;stroke:none;stroke-width:0.1"
       id="path62" /><path
       d="m 181.788,48.6574 h -3.845 v 1.9649 h 9.811 v -1.9649 h -3.845 V 38.5523 h -2.121 v 10.1051"
       style="fill:#555e6e;fill-opacity:1;fill-rule:nonzero;stroke:none;stroke-width:0.1"
       id="path64" /><path
       d="m 189.552,50.6223 h 2.12 v -12.07 h -2.12 v 12.07"
       style="fill:#555e6e;fill-opacity:1;fill-rule:nonzero;stroke:none;stroke-width:0.1"
       id="path66" /><path
       d="m 201.718,43.3453 -2.086,4.8285 -2.069,-4.8285 z m -3.034,7.3637 h 1.966 l 5.31,-12.1567 h -2.242 l -1.224,2.9141 h -5.707 l -1.242,-2.9141 h -2.172 l 5.311,12.1567"
       style="fill:#555e6e;fill-opacity:1;fill-rule:nonzero;stroke:none;stroke-width:0.1"
       id="path68" /><path
       d="m 207.64,50.6223 h 2.121 V 40.4828 h 6.345 v -1.9305 h -8.466 v 12.07"
       style="fill:#555e6e;fill-opacity:1;fill-rule:nonzero;stroke:none;stroke-width:0.1"
       id="path70" /><path
       d="m 222.906,50.6223 h 2.12 v -12.07 h -2.12 v 12.07"
       style="fill:#555e6e;fill-opacity:1;fill-rule:nonzero;stroke:none;stroke-width:0.1"
       id="path72" /><path
       d="m 227.965,50.6223 h 1.966 l 6.466,-8.3453 v 8.3453 h 2.086 v -12.07 h -1.776 l -6.656,8.5875 v -8.5875 h -2.086 v 12.07"
       style="fill:#555e6e;fill-opacity:1;fill-rule:nonzero;stroke:none;stroke-width:0.1"
       id="path74" /><path
       d="m 241.398,50.6223 h 8.983 v -1.9309 h -6.862 v -3.293 h 6.086 v -1.9316 h -6.086 v -4.9145 h -2.121 v 12.07"
       style="fill:#555e6e;fill-opacity:1;fill-rule:nonzero;stroke:none;stroke-width:0.1"
       id="path76" /><path
       d="m 261.918,44.5527 v 0.0352 c 0,2.3449 -1.707,4.2754 -4.103,4.2754 -2.397,0 -4.07,-1.8965 -4.07,-4.241 v -0.0344 c 0,-2.3461 1.707,-4.277 4.105,-4.277 2.396,0 4.068,1.8965 4.068,4.2418 z m -10.396,0 v 0.0352 c 0,3.3965 2.62,6.2414 6.328,6.2414 3.707,0 6.293,-2.8105 6.293,-6.207 v -0.0344 c 0,-3.3981 -2.621,-6.2426 -6.328,-6.2426 -3.707,0 -6.293,2.8106 -6.293,6.2074"
       style="fill:#555e6e;fill-opacity:1;fill-rule:nonzero;stroke:none;stroke-width:0.1"
       id="path78" /><path
       d="m 271.678,44.6398 c 1.517,0 2.482,0.793 2.482,2.0165 v 0.0351 c 0,1.293 -0.93,2 -2.5,2 h -3.086 v -4.0516 z m -5.225,5.9825 h 5.38 c 1.518,0 2.707,-0.4485 3.483,-1.2071 0.638,-0.6543 1,-1.5519 1,-2.6035 v -0.0344 c 0,-1.9824 -1.19,-3.1726 -2.863,-3.6554 l 3.26,-4.5696 h -2.518 l -2.965,4.2071 h -2.656 v -4.2071 h -2.121 v 12.07"
       style="fill:#555e6e;fill-opacity:1;fill-rule:nonzero;stroke:none;stroke-width:0.1"
       id="path80" /><path
       d="m 278.681,50.6223 h 2.259 l 3.672,-5.7071 3.673,5.7071 h 2.259 v -12.07 h -2.121 v 8.6559 l -3.811,-5.6898 h -0.069 l -3.776,5.6554 v -8.6215 h -2.086 v 12.07"
       style="fill:#555e6e;fill-opacity:1;fill-rule:nonzero;stroke:none;stroke-width:0.1"
       id="path82" /><path
       d="m 300.569,43.3453 -2.086,4.8285 -2.069,-4.8285 z m -3.034,7.3637 h 1.966 l 5.311,-12.1567 h -2.243 l -1.223,2.9141 h -5.707 l -1.242,-2.9141 h -2.172 l 5.31,12.1567"
       style="fill:#555e6e;fill-opacity:1;fill-rule:nonzero;stroke:none;stroke-width:0.1"
       id="path84" /><path
       d="m 307.942,48.6574 h -3.844 v 1.9649 h 9.81 v -1.9649 h -3.844 V 38.5523 h -2.122 v 10.1051"
       style="fill:#555e6e;fill-opacity:1;fill-rule:nonzero;stroke:none;stroke-width:0.1"
       id="path86" /><path
       d="m 315.706,50.6223 h 2.12 v -12.07 h -2.12 v 12.07"
       style="fill:#555e6e;fill-opacity:1;fill-rule:nonzero;stroke:none;stroke-width:0.1"
       id="path88" /><path
       d="m 320.185,44.5527 v 0.0352 c 0,3.4309 2.569,6.2414 6.207,6.2414 2.241,0 3.586,-0.7754 4.741,-1.8789 l -1.361,-1.5695 c -0.984,0.8964 -2.001,1.4824 -3.398,1.4824 -2.275,0 -3.966,-1.8789 -3.966,-4.241 v -0.0344 c 0,-2.3625 1.673,-4.277 3.984,-4.277 1.482,0 2.43,0.5864 3.466,1.552 l 1.362,-1.3801 c -1.259,-1.3094 -2.639,-2.1375 -4.898,-2.1375 -3.534,0 -6.137,2.741 -6.137,6.2074"
       style="fill:#555e6e;fill-opacity:1;fill-rule:nonzero;stroke:none;stroke-width:0.1"
       id="path90" /><path
       d="m 332.573,40.3109 1.277,1.5176 c 1.155,-1 2.327,-1.5691 3.81,-1.5691 1.311,0 2.138,0.6211 2.138,1.5176 v 0.0339 c 0,0.8625 -0.482,1.3286 -2.724,1.8454 -2.569,0.621 -4.017,1.38 -4.017,3.6035 v 0.0351 c 0,2.0684 1.723,3.5 4.12,3.5 1.759,0 3.156,-0.534 4.38,-1.5176 l -1.138,-1.6035 c -1.087,0.8106 -2.173,1.2414 -3.276,1.2414 -1.242,0 -1.966,-0.6379 -1.966,-1.4308 v -0.034 c 0,-0.9316 0.552,-1.3457 2.88,-1.8977 2.551,-0.6199 3.862,-1.5339 3.862,-3.5343 V 41.984 c 0,-2.2586 -1.776,-3.6043 -4.311,-3.6043 -1.844,0 -3.586,0.6387 -5.035,1.9312"
       style="fill:#555e6e;fill-opacity:1;fill-rule:nonzero;stroke:none;stroke-width:0.1"
       id="path92" /><path
       d="m 121.221,29.0609 c 1.518,0 2.483,0.7934 2.483,2.0168 v 0.0352 c 0,1.293 -0.931,2 -2.5,2 h -3.086 v -4.052 z m -5.224,5.9829 h 5.38 c 1.517,0 2.707,-0.4485 3.482,-1.2075 0.639,-0.6543 1,-1.5515 1,-2.6035 v -0.034 c 0,-1.9824 -1.189,-3.1726 -2.861,-3.655 l 3.258,-4.5696 h -2.517 l -2.966,4.2071 h -2.655 v -4.2071 h -2.121 v 12.0696"
       style="fill:#555e6e;fill-opacity:1;fill-rule:nonzero;stroke:none;stroke-width:0.1"
       id="path94" /><path
       d="m 128.225,35.0438 h 8.949 v -1.8965 h -6.828 v -3.1379 h 6.052 v -1.9141 h -6.052 v -3.2246 h 6.914 v -1.8965 h -9.035 v 12.0696"
       style="fill:#555e6e;fill-opacity:1;fill-rule:nonzero;stroke:none;stroke-width:0.1"
       id="path96" /><path
       d="m 138.75,24.7328 1.276,1.518 c 1.155,-1 2.327,-1.5695 3.811,-1.5695 1.311,0 2.138,0.621 2.138,1.5175 v 0.034 c 0,0.8625 -0.483,1.3281 -2.725,1.8449 -2.569,0.6211 -4.017,1.3797 -4.017,3.6036 v 0.0351 c 0,2.0684 1.724,3.5 4.12,3.5 1.759,0 3.157,-0.5344 4.38,-1.5176 l -1.137,-1.6035 c -1.087,0.8106 -2.173,1.241 -3.277,1.241 -1.241,0 -1.966,-0.6375 -1.966,-1.4304 v -0.034 c 0,-0.9321 0.552,-1.3457 2.88,-1.8977 2.552,-0.6199 3.863,-1.5344 3.863,-3.5344 v -0.0339 c 0,-2.2586 -1.777,-3.6043 -4.311,-3.6043 -1.845,0 -3.587,0.6386 -5.035,1.9312"
       style="fill:#555e6e;fill-opacity:1;fill-rule:nonzero;stroke:none;stroke-width:0.1"
       id="path98" /><path
       d="m 150.326,35.0438 h 8.949 v -1.8965 h -6.828 v -3.1379 h 6.052 v -1.9141 h -6.052 v -3.2246 h 6.914 v -1.8965 h -9.035 v 12.0696"
       style="fill:#555e6e;fill-opacity:1;fill-rule:nonzero;stroke:none;stroke-width:0.1"
       id="path100" /><path
       d="m 169.085,27.7672 -2.086,4.8281 -2.069,-4.8281 z m -3.034,7.3633 h 1.966 l 5.31,-12.1563 h -2.242 l -1.224,2.9141 h -5.707 l -1.242,-2.9141 h -2.172 l 5.311,12.1563"
       style="fill:#555e6e;fill-opacity:1;fill-rule:nonzero;stroke:none;stroke-width:0.1"
       id="path102" /><path
       d="m 180.232,29.0609 c 1.517,0 2.482,0.7934 2.482,2.0168 v 0.0352 c 0,1.293 -0.931,2 -2.5,2 h -3.086 v -4.052 z m -5.225,5.9829 h 5.38 c 1.517,0 2.707,-0.4485 3.482,-1.2075 0.639,-0.6543 1,-1.5515 1,-2.6035 v -0.034 c 0,-1.9824 -1.189,-3.1726 -2.861,-3.655 l 3.259,-4.5696 h -2.518 l -2.966,4.2071 h -2.655 v -4.2071 h -2.121 v 12.0696"
       style="fill:#555e6e;fill-opacity:1;fill-rule:nonzero;stroke:none;stroke-width:0.1"
       id="path104" /><path
       d="m 186.467,28.9742 v 0.0352 c 0,3.4304 2.568,6.2414 6.207,6.2414 2.241,0 3.586,-0.7754 4.741,-1.8789 l -1.361,-1.5696 c -0.984,0.8965 -2.001,1.4825 -3.398,1.4825 -2.275,0 -3.965,-1.8789 -3.965,-4.241 v -0.0344 c 0,-2.3621 1.672,-4.2766 3.983,-4.2766 1.482,0 2.432,0.5863 3.466,1.552 l 1.362,-1.3797 c -1.259,-1.3098 -2.639,-2.1379 -4.897,-2.1379 -3.535,0 -6.138,2.7414 -6.138,6.207"
       style="fill:#555e6e;fill-opacity:1;fill-rule:nonzero;stroke:none;stroke-width:0.1"
       id="path106" /><path
       d="m 199.354,35.0438 h 2.121 v -5.0176 h 5.758 v 5.0176 h 2.122 V 22.9742 h -2.122 v 5.0867 h -5.758 v -5.0867 h -2.121 v 12.0696"
       style="fill:#555e6e;fill-opacity:1;fill-rule:nonzero;stroke:none;stroke-width:0.1"
       id="path108" /><path
       d="m 222.432,32.1813 v 0.0351 c 0,0.8106 -0.57,1.3621 -1.363,1.3621 -0.862,0 -1.448,-0.6211 -1.448,-1.4488 v -0.0344 c 0,-0.6035 0.241,-1.0515 0.914,-1.793 1.241,0.4485 1.897,1.0176 1.897,1.879 z m 0.068,-6.5696 -2.689,2.7426 c -1.121,-0.4836 -1.604,-1.2246 -1.604,-2 v -0.0352 c 0,-1.0168 0.845,-1.7589 2.018,-1.7589 0.827,0 1.586,0.3964 2.275,1.0515 z m 1.207,-1.241 c -1.034,-0.9656 -2.241,-1.5691 -3.689,-1.5691 -2.259,0 -3.966,1.3621 -3.966,3.4492 v 0.034 c 0,1.5515 0.931,2.6726 2.586,3.3625 -0.69,0.8965 -1,1.6375 -1,2.5175 v 0.034 c 0,1.6375 1.31,3.052 3.466,3.052 1.914,0 3.207,-1.2934 3.207,-2.9145 v -0.034 c 0,-1.5859 -1.052,-2.5339 -2.656,-3.1375 l 2.07,-2.1039 c 0.448,0.6899 0.896,1.4829 1.293,2.3274 l 1.603,-0.8445 c -0.482,-0.9661 -1.017,-1.9141 -1.638,-2.7415 l 1.915,-1.9316 -1.587,-1.1379 -1.604,1.6379"
       style="fill:#555e6e;fill-opacity:1;fill-rule:nonzero;stroke:none;stroke-width:0.1"
       id="path110" /><path
       d="m 233.44,35.0438 h 8.949 v -1.8965 h -6.828 v -3.1379 h 6.051 v -1.9141 h -6.051 v -3.2246 h 6.914 v -1.8965 h -9.035 v 12.0696"
       style="fill:#555e6e;fill-opacity:1;fill-rule:nonzero;stroke:none;stroke-width:0.1"
       id="path112" /><path
       d="m 246.903,33.1129 v -8.2078 h 2.379 c 2.535,0 4.191,1.7066 4.191,4.0691 v 0.0352 c 0,2.3625 -1.656,4.1035 -4.191,4.1035 z m -2.121,1.9309 h 4.5 c 3.794,0 6.414,-2.604 6.414,-6 v -0.0344 c 0,-3.3977 -2.62,-6.0352 -6.414,-6.0352 h -4.5 v 12.0696"
       style="fill:#555e6e;fill-opacity:1;fill-rule:nonzero;stroke:none;stroke-width:0.1"
       id="path114" /><path
       d="m 257.762,28.0953 v 6.9485 h 2.121 v -6.8625 c 0,-2.2415 1.155,-3.4305 3.052,-3.4305 1.879,0 3.034,1.1199 3.034,3.3445 v 6.9485 h 2.121 v -6.845 c 0,-3.6035 -2.035,-5.414 -5.19,-5.414 -3.138,0 -5.138,1.8105 -5.138,5.3105"
       style="fill:#555e6e;fill-opacity:1;fill-rule:nonzero;stroke:none;stroke-width:0.1"
       id="path116" /><path
       d="m 270.186,28.9742 v 0.0352 c 0,3.4304 2.568,6.2414 6.207,6.2414 2.241,0 3.586,-0.7754 4.741,-1.8789 l -1.361,-1.5696 c -0.984,0.8965 -2.001,1.4825 -3.398,1.4825 -2.275,0 -3.966,-1.8789 -3.966,-4.241 v -0.0344 c 0,-2.3621 1.673,-4.2766 3.984,-4.2766 1.482,0 2.431,0.5863 3.465,1.552 l 1.363,-1.3797 c -1.259,-1.3098 -2.639,-2.1379 -4.898,-2.1379 -3.534,0 -6.137,2.7414 -6.137,6.207"
       style="fill:#555e6e;fill-opacity:1;fill-rule:nonzero;stroke:none;stroke-width:0.1"
       id="path118" /><path
       d="m 290.452,27.7672 -2.086,4.8281 -2.069,-4.8281 z m -3.034,7.3633 h 1.966 l 5.31,-12.1563 h -2.242 l -1.223,2.9141 h -5.707 l -1.243,-2.9141 h -2.171 l 5.31,12.1563"
       style="fill:#555e6e;fill-opacity:1;fill-rule:nonzero;stroke:none;stroke-width:0.1"
       id="path120" /><path
       d="m 297.824,33.0785 h -3.844 v 1.9653 h 9.81 v -1.9653 h -3.845 V 22.9742 h -2.121 v 10.1043"
       style="fill:#555e6e;fill-opacity:1;fill-rule:nonzero;stroke:none;stroke-width:0.1"
       id="path122" /><path
       d="m 305.589,35.0438 h 2.12 V 22.9742 h -2.12 v 12.0696"
       style="fill:#555e6e;fill-opacity:1;fill-rule:nonzero;stroke:none;stroke-width:0.1"
       id="path124" /><path
       d="m 320.429,28.9742 v 0.0352 c 0,2.3449 -1.707,4.2754 -4.104,4.2754 -2.396,0 -4.069,-1.8965 -4.069,-4.241 v -0.0344 c 0,-2.3457 1.707,-4.2766 4.104,-4.2766 2.397,0 4.069,1.8969 4.069,4.2414 z m -10.397,0 v 0.0352 c 0,3.3965 2.62,6.2414 6.328,6.2414 3.707,0 6.293,-2.811 6.293,-6.207 v -0.0344 c 0,-3.3977 -2.621,-6.2422 -6.328,-6.2422 -3.707,0 -6.293,2.8105 -6.293,6.207"
       style="fill:#555e6e;fill-opacity:1;fill-rule:nonzero;stroke:none;stroke-width:0.1"
       id="path126" /><path
       d="m 324.963,35.0438 h 1.966 l 6.466,-8.345 v 8.345 h 2.086 V 22.9742 h -1.776 l -6.656,8.5867 v -8.5867 h -2.086 v 12.0696"
       style="fill:#555e6e;fill-opacity:1;fill-rule:nonzero;stroke:none;stroke-width:0.1"
       id="path128" /></g></svg>
