<?xml version="1.0" encoding="UTF-8" standalone="no"?>
<!-- Created with Inkscape (http://www.inkscape.org/) -->

<svg
   version="1.1"
   id="svg2"
   xml:space="preserve"
   width="515"
   height="118.30667"
   viewBox="0 0 515 118.30667"
   xmlns="http://www.w3.org/2000/svg"
   xmlns:svg="http://www.w3.org/2000/svg"><defs
     id="defs6" /><g
     id="g8"
     transform="matrix(1.3333333,0,0,-1.3333333,0,118.30667)"><g
       id="g10"
       transform="scale(0.1)"><path
         d="m 980.992,262.945 h -1.14 v -5.207 h 1.824 c 2.07,0 3.484,0.727 3.484,2.785 0,2.071 -2.101,2.422 -4.168,2.422 z m -5.84,-14.785 v 17.949 c 1.114,0 8.45,-0.039 8.696,-0.046 3.472,-0.254 5.929,-1.77 5.929,-5.208 0,-2.761 -1.566,-4.167 -4.371,-4.472 5.492,-1.145 2.949,-3.594 4.457,-8.223 h -4.476 c -0.274,1.055 -0.328,3.985 -0.594,4.68 -0.664,1.785 -2.977,1.668 -4.941,1.668 v -6.348 z m -6.281,9.004 c 0,-7.48 5.891,-13.476 13.371,-13.476 7.426,0 13.328,6.027 13.328,13.476 0,7.195 -5.882,13.418 -13.328,13.418 -7.48,0 -13.371,-6.133 -13.371,-13.418 z m 13.371,-16.18 c -9.156,0 -16.179,7.02 -16.179,16.18 0,9.531 7.589,16.184 16.179,16.184 8.992,0 16.188,-7.192 16.188,-16.184 0,-9.246 -7.285,-16.18 -16.188,-16.18 z M 715.656,368.172 v -90.09 c -0.008,-2.012 -0.789,-3.945 -2.207,-5.383 -15.617,-15.769 -62.285,-45.816 -129.445,-45.816 -67.152,0 -113.82,30.047 -129.438,45.816 -1.421,1.438 -2.203,3.371 -2.203,5.383 v 71.211 L 379.43,414.508 V 262.867 c 0.004,-2.246 0.754,-4.441 2.121,-6.23 46.969,-61.426 125.539,-86.883 202.453,-86.883 76.922,0 155.484,25.457 202.461,86.883 1.363,1.789 2.105,3.984 2.105,6.23 v 105.281 l -36.429,-48.14 z M 960.82,566.434 h 37.61 v 53.363 H 863.469 L 752.141,472.766 640.813,619.797 H 505.875 v -53.363 h 37.582 c 2.832,0 5.129,-2.293 5.129,-5.125 V 386.949 L 288.121,619.797 H 169.473 v -53.363 h 37.535 c 2.828,0 5.121,-2.293 5.121,-5.125 v -210.95 c 0,-2.836 -2.293,-5.129 -5.121,-5.129 h -37.535 v -53.359 h 156.015 v 53.359 h -35.304 c -2.832,0 -5.125,2.293 -5.125,5.129 v 174.36 L 545.508,291.871 h 76.004 V 524.48 L 752.141,351.949 882.773,524.48 V 350.348 c -0.003,-2.825 -2.293,-5.118 -5.121,-5.118 H 842.34 v -53.359 h 156.09 v 53.359 h -37.606 c -2.832,0 -5.121,2.293 -5.121,5.129 v 210.95 c 0,2.832 2.289,5.125 5.117,5.125 z M 715.773,659.039 V 552.77 l 36.368,-48.063 36.554,48.254 v 106.082 c 0.008,2.828 2.321,5.125 5.149,5.125 h 37.597 v 53.355 H 673.098 v -53.355 h 37.578 c 2.828,0 5.097,-2.297 5.097,-5.129 z m -341.609,5.129 h -37.598 v 53.355 H 494.918 V 664.168 H 457.34 c -2.828,0 -5.086,-2.297 -5.086,-5.129 V 498.902 l -72.941,65.219 v 94.922 c -0.004,2.828 -2.317,5.125 -5.149,5.125"
         style="fill:#231f20;fill-opacity:1;fill-rule:nonzero;stroke:none"
         id="path12" /><path
         d="m 1154.63,601.32 v 0.352 c 0,34.305 25.68,62.41 62.07,62.41 22.41,0 35.85,-7.754 47.41,-18.789 l -13.62,-15.691 c -9.83,8.964 -20.01,14.824 -33.97,14.824 -22.75,0 -39.66,-18.789 -39.66,-42.414 v -0.34 c 0,-23.625 16.73,-42.766 39.84,-42.766 14.82,0 24.31,5.86 34.65,15.52 l 13.63,-13.789 c -12.59,-13.106 -26.39,-21.387 -48.98,-21.387 -35.34,0 -61.37,27.41 -61.37,62.07"
         style="fill:#231f20;fill-opacity:1;fill-rule:nonzero;stroke:none"
         id="path14" /><path
         d="m 1283.49,662.012 h 89.49 v -18.965 h -68.28 v -31.375 h 60.52 v -19.141 h -60.52 v -32.246 h 69.14 V 541.32 h -90.35 v 120.692"
         style="fill:#231f20;fill-opacity:1;fill-rule:nonzero;stroke:none"
         id="path16" /><path
         d="m 1396.93,662.012 h 19.66 l 64.66,-83.446 v 83.446 h 20.86 V 541.32 h -17.75 l -66.57,85.868 V 541.32 h -20.86 v 120.692"
         style="fill:#231f20;fill-opacity:1;fill-rule:nonzero;stroke:none"
         id="path18" /><path
         d="m 1557.95,642.363 h -38.45 v 19.649 h 98.11 v -19.649 h -38.45 V 541.32 h -21.21 v 101.043"
         style="fill:#231f20;fill-opacity:1;fill-rule:nonzero;stroke:none"
         id="path20" /><path
         d="m 1634.98,662.012 h 89.49 v -18.965 h -68.28 v -31.375 h 60.52 v -19.141 h -60.52 v -32.246 h 69.14 V 541.32 h -90.35 v 120.692"
         style="fill:#231f20;fill-opacity:1;fill-rule:nonzero;stroke:none"
         id="path22" /><path
         d="m 1800.66,602.188 c 15.18,0 24.83,7.929 24.83,20.167 v 0.352 c 0,12.93 -9.31,20 -25,20 h -30.86 v -40.519 z m -52.24,59.824 h 53.8 c 15.17,0 27.07,-4.481 34.82,-12.071 6.39,-6.55 10,-15.515 10,-26.035 v -0.34 c 0,-19.824 -11.89,-31.73 -28.62,-36.554 l 32.6,-45.692 h -25.18 l -29.66,42.071 h -26.55 V 541.32 h -21.21 v 120.692"
         style="fill:#231f20;fill-opacity:1;fill-rule:nonzero;stroke:none"
         id="path24" /><path
         d="m 1917.98,662.012 h 89.83 v -19.305 h -68.62 v -32.93 h 60.86 v -19.316 h -60.86 V 541.32 h -21.21 v 120.692"
         style="fill:#231f20;fill-opacity:1;fill-rule:nonzero;stroke:none"
         id="path26" /><path
         d="m 2123.19,601.32 v 0.352 c 0,23.445 -17.07,42.754 -41.03,42.754 -23.97,0 -40.69,-18.965 -40.69,-42.414 v -0.34 c 0,-23.457 17.07,-42.766 41.04,-42.766 23.97,0 40.68,18.965 40.68,42.414 z m -103.96,0 v 0.352 c 0,33.965 26.2,62.41 63.28,62.41 37.07,0 62.93,-28.105 62.93,-62.07 v -0.34 c 0,-33.977 -26.21,-62.422 -63.28,-62.422 -37.07,0 -62.93,28.105 -62.93,62.07"
         style="fill:#231f20;fill-opacity:1;fill-rule:nonzero;stroke:none"
         id="path28" /><path
         d="m 2220.78,602.188 c 15.18,0 24.83,7.929 24.83,20.167 v 0.352 c 0,12.93 -9.31,20 -25,20 h -30.86 v -40.519 z m -52.24,59.824 h 53.79 c 15.18,0 27.08,-4.481 34.83,-12.071 6.39,-6.55 10,-15.515 10,-26.035 v -0.34 c 0,-19.824 -11.9,-31.73 -28.62,-36.554 l 32.59,-45.692 h -25.17 l -29.66,42.071 h -26.55 V 541.32 h -21.21 v 120.692"
         style="fill:#231f20;fill-opacity:1;fill-rule:nonzero;stroke:none"
         id="path30" /><path
         d="m 2411.2,589.25 -20.86,48.281 -20.69,-48.281 z m -30.34,73.633 h 19.66 l 53.1,-121.563 h -22.42 l -12.23,29.141 h -57.07 l -12.43,-29.141 h -21.72 l 53.11,121.563"
         style="fill:#231f20;fill-opacity:1;fill-rule:nonzero;stroke:none"
         id="path32" /><path
         d="m 2491.63,642.707 v -82.07 h 23.79 c 25.35,0 41.91,17.058 41.91,40.683 v 0.352 c 0,23.621 -16.56,41.035 -41.91,41.035 z m -21.21,19.305 h 45 c 37.94,0 64.14,-26.035 64.14,-60 v -0.34 c 0,-33.977 -26.2,-60.352 -64.14,-60.352 h -45 v 120.692"
         style="fill:#231f20;fill-opacity:1;fill-rule:nonzero;stroke:none"
         id="path34" /><path
         d="m 2584.4,662.012 h 23.44 l 36.38,-92.762 36.21,92.762 h 22.93 l -50,-121.551 h -18.96 l -50,121.551"
         style="fill:#231f20;fill-opacity:1;fill-rule:nonzero;stroke:none"
         id="path36" /><path
         d="m 2780.42,589.25 -20.86,48.281 -20.69,-48.281 z m -30.34,73.633 h 19.66 l 53.1,-121.563 h -22.42 l -12.24,29.141 h -57.07 l -12.42,-29.141 h -21.72 l 53.11,121.563"
         style="fill:#231f20;fill-opacity:1;fill-rule:nonzero;stroke:none"
         id="path38" /><path
         d="m 2839.64,662.012 h 19.66 l 64.66,-83.446 v 83.446 h 20.86 V 541.32 h -17.76 l -66.56,85.868 V 541.32 h -20.86 v 120.692"
         style="fill:#231f20;fill-opacity:1;fill-rule:nonzero;stroke:none"
         id="path40" /><path
         d="m 2967.82,601.32 v 0.352 c 0,34.305 25.7,62.41 62.07,62.41 22.42,0 35.86,-7.754 47.42,-18.789 l -13.62,-15.691 c -9.83,8.964 -20.01,14.824 -33.97,14.824 -22.76,0 -39.66,-18.789 -39.66,-42.414 v -0.34 c 0,-23.625 16.73,-42.766 39.83,-42.766 14.83,0 24.31,5.86 34.66,15.52 l 13.62,-13.789 c -12.58,-13.106 -26.38,-21.387 -48.97,-21.387 -35.34,0 -61.38,27.41 -61.38,62.07"
         style="fill:#231f20;fill-opacity:1;fill-rule:nonzero;stroke:none"
         id="path42" /><path
         d="m 3096.7,662.012 h 89.49 v -18.965 h -68.28 v -31.375 h 60.52 v -19.141 h -60.52 v -32.246 h 69.14 V 541.32 h -90.35 v 120.692"
         style="fill:#231f20;fill-opacity:1;fill-rule:nonzero;stroke:none"
         id="path44" /><path
         d="m 3210.13,662.012 h 22.59 l 36.72,-57.071 36.73,57.071 h 22.59 V 541.32 h -21.21 v 86.551 l -38.11,-56.894 h -0.69 l -37.76,56.554 V 541.32 h -20.86 v 120.692"
         style="fill:#231f20;fill-opacity:1;fill-rule:nonzero;stroke:none"
         id="path46" /><path
         d="m 3358,662.012 h 89.49 v -18.965 h -68.28 v -31.375 h 60.52 v -19.141 h -60.52 v -32.246 h 69.14 V 541.32 H 3358 v 120.692"
         style="fill:#231f20;fill-opacity:1;fill-rule:nonzero;stroke:none"
         id="path48" /><path
         d="m 3471.44,662.012 h 19.65 l 64.66,-83.446 v 83.446 h 20.86 V 541.32 h -17.75 l -66.56,85.868 V 541.32 h -20.86 v 120.692"
         style="fill:#231f20;fill-opacity:1;fill-rule:nonzero;stroke:none"
         id="path50" /><path
         d="M 3632.44,642.363 H 3594 v 19.649 h 98.1 v -19.649 h -38.45 V 541.32 h -21.21 v 101.043"
         style="fill:#231f20;fill-opacity:1;fill-rule:nonzero;stroke:none"
         id="path52" /><path
         d="m 1258.59,445.527 v 0.352 c 0,23.449 -17.07,42.754 -41.04,42.754 -23.96,0 -40.69,-18.965 -40.69,-42.41 v -0.344 c 0,-23.461 17.07,-42.77 41.05,-42.77 23.96,0 40.68,18.965 40.68,42.418 z m -103.96,0 v 0.352 c 0,33.965 26.2,62.414 63.28,62.414 37.07,0 62.93,-28.105 62.93,-62.07 v -0.344 c 0,-33.981 -26.21,-62.426 -63.29,-62.426 -37.07,0 -62.92,28.106 -62.92,62.074"
         style="fill:#231f20;fill-opacity:1;fill-rule:nonzero;stroke:none"
         id="path54" /><path
         d="m 1303.93,506.223 h 89.84 v -19.309 h -68.63 v -32.93 H 1386 v -19.316 h -60.86 v -49.145 h -21.21 v 120.7"
         style="fill:#231f20;fill-opacity:1;fill-rule:nonzero;stroke:none"
         id="path56" /><path
         d="m 1453.84,403.109 12.76,15.176 c 11.56,-10 23.27,-15.691 38.11,-15.691 13.1,0 21.37,6.211 21.37,15.176 v 0.339 c 0,8.625 -4.82,13.286 -27.23,18.454 -25.69,6.21 -40.18,13.8 -40.18,36.035 v 0.351 c 0,20.684 17.24,35 41.2,35 17.59,0 31.57,-5.34 43.8,-15.176 l -11.37,-16.035 c -10.87,8.106 -21.73,12.414 -32.77,12.414 -12.41,0 -19.66,-6.379 -19.66,-14.308 v -0.34 c 0,-9.316 5.52,-13.457 28.8,-18.977 25.52,-6.199 38.63,-15.339 38.63,-35.343 v -0.344 c 0,-22.586 -17.77,-36.043 -43.11,-36.043 -18.45,0 -35.87,6.387 -50.35,19.312"
         style="fill:#231f20;fill-opacity:1;fill-rule:nonzero;stroke:none"
         id="path58" /><path
         d="m 1615.47,443.469 c 16.03,0 26.03,8.965 26.03,21.551 v 0.343 c 0,14.141 -10.17,21.551 -26.03,21.551 h -24.66 v -43.445 z m -45.87,62.754 h 47.59 c 28.28,0 45.87,-16.035 45.87,-40.344 v -0.34 c 0,-27.082 -21.73,-41.219 -48.28,-41.219 h -23.97 v -38.797 h -21.21 v 120.7"
         style="fill:#231f20;fill-opacity:1;fill-rule:nonzero;stroke:none"
         id="path60" /><path
         d="m 1744.15,433.453 -20.86,48.285 -20.69,-48.285 z m -30.34,73.637 h 19.66 l 53.1,-121.567 h -22.42 l -12.24,29.141 h -57.07 l -12.42,-29.141 h -21.72 l 53.11,121.567"
         style="fill:#231f20;fill-opacity:1;fill-rule:nonzero;stroke:none"
         id="path62" /><path
         d="m 1817.88,486.574 h -38.45 v 19.649 h 98.11 v -19.649 h -38.45 V 385.523 h -21.21 v 101.051"
         style="fill:#231f20;fill-opacity:1;fill-rule:nonzero;stroke:none"
         id="path64" /><path
         d="m 1895.52,506.223 h 21.2 v -120.7 h -21.2 v 120.7"
         style="fill:#231f20;fill-opacity:1;fill-rule:nonzero;stroke:none"
         id="path66" /><path
         d="m 2017.18,433.453 -20.86,48.285 -20.69,-48.285 z m -30.34,73.637 h 19.66 l 53.1,-121.567 h -22.42 l -12.24,29.141 h -57.07 l -12.42,-29.141 h -21.72 l 53.11,121.567"
         style="fill:#231f20;fill-opacity:1;fill-rule:nonzero;stroke:none"
         id="path68" /><path
         d="m 2076.4,506.223 h 21.21 V 404.828 h 63.45 v -19.305 h -84.66 v 120.7"
         style="fill:#231f20;fill-opacity:1;fill-rule:nonzero;stroke:none"
         id="path70" /><path
         d="m 2229.06,506.223 h 21.2 v -120.7 h -21.2 v 120.7"
         style="fill:#231f20;fill-opacity:1;fill-rule:nonzero;stroke:none"
         id="path72" /><path
         d="m 2279.65,506.223 h 19.66 l 64.66,-83.453 v 83.453 h 20.86 v -120.7 h -17.76 l -66.56,85.875 v -85.875 h -20.86 v 120.7"
         style="fill:#231f20;fill-opacity:1;fill-rule:nonzero;stroke:none"
         id="path74" /><path
         d="m 2413.98,506.223 h 89.83 v -19.309 h -68.62 v -32.93 h 60.86 v -19.316 h -60.86 v -49.145 h -21.21 v 120.7"
         style="fill:#231f20;fill-opacity:1;fill-rule:nonzero;stroke:none"
         id="path76" /><path
         d="m 2619.18,445.527 v 0.352 c 0,23.449 -17.07,42.754 -41.03,42.754 -23.97,0 -40.7,-18.965 -40.7,-42.41 v -0.344 c 0,-23.461 17.07,-42.77 41.05,-42.77 23.96,0 40.68,18.965 40.68,42.418 z m -103.96,0 v 0.352 c 0,33.965 26.2,62.414 63.28,62.414 37.07,0 62.93,-28.105 62.93,-62.07 v -0.344 c 0,-33.981 -26.21,-62.426 -63.28,-62.426 -37.07,0 -62.93,28.106 -62.93,62.074"
         style="fill:#231f20;fill-opacity:1;fill-rule:nonzero;stroke:none"
         id="path78" /><path
         d="m 2716.78,446.398 c 15.17,0 24.82,7.93 24.82,20.165 v 0.351 c 0,12.93 -9.3,20 -25,20 h -30.86 v -40.516 z m -52.25,59.825 h 53.8 c 15.18,0 27.07,-4.485 34.83,-12.071 6.38,-6.543 10,-15.519 10,-26.035 v -0.344 c 0,-19.824 -11.9,-31.726 -28.63,-36.554 l 32.6,-45.696 h -25.18 l -29.65,42.071 h -26.56 v -42.071 h -21.21 v 120.7"
         style="fill:#231f20;fill-opacity:1;fill-rule:nonzero;stroke:none"
         id="path80" /><path
         d="m 2786.81,506.223 h 22.59 l 36.72,-57.071 36.73,57.071 h 22.59 v -120.7 h -21.21 v 86.559 l -38.11,-56.898 h -0.69 l -37.76,56.554 v -86.215 h -20.86 v 120.7"
         style="fill:#231f20;fill-opacity:1;fill-rule:nonzero;stroke:none"
         id="path82" /><path
         d="m 3005.69,433.453 -20.86,48.285 -20.69,-48.285 z m -30.34,73.637 h 19.66 l 53.11,-121.567 h -22.43 l -12.23,29.141 h -57.07 l -12.42,-29.141 h -21.72 l 53.1,121.567"
         style="fill:#231f20;fill-opacity:1;fill-rule:nonzero;stroke:none"
         id="path84" /><path
         d="m 3079.42,486.574 h -38.44 v 19.649 h 98.1 v -19.649 h -38.44 V 385.523 h -21.22 v 101.051"
         style="fill:#231f20;fill-opacity:1;fill-rule:nonzero;stroke:none"
         id="path86" /><path
         d="m 3157.06,506.223 h 21.2 v -120.7 h -21.2 v 120.7"
         style="fill:#231f20;fill-opacity:1;fill-rule:nonzero;stroke:none"
         id="path88" /><path
         d="m 3201.85,445.527 v 0.352 c 0,34.309 25.69,62.414 62.07,62.414 22.41,0 35.86,-7.754 47.41,-18.789 l -13.61,-15.695 c -9.84,8.964 -20.01,14.824 -33.98,14.824 -22.75,0 -39.66,-18.789 -39.66,-42.41 v -0.344 c 0,-23.625 16.73,-42.77 39.84,-42.77 14.82,0 24.3,5.864 34.66,15.52 l 13.62,-13.801 c -12.59,-13.094 -26.39,-21.375 -48.98,-21.375 -35.34,0 -61.37,27.41 -61.37,62.074"
         style="fill:#231f20;fill-opacity:1;fill-rule:nonzero;stroke:none"
         id="path90" /><path
         d="m 3325.73,403.109 12.77,15.176 c 11.55,-10 23.27,-15.691 38.1,-15.691 13.11,0 21.38,6.211 21.38,15.176 v 0.339 c 0,8.625 -4.82,13.286 -27.24,18.454 -25.69,6.21 -40.17,13.8 -40.17,36.035 v 0.351 c 0,20.684 17.23,35 41.2,35 17.59,0 31.56,-5.34 43.8,-15.176 l -11.38,-16.035 c -10.87,8.106 -21.73,12.414 -32.76,12.414 -12.42,0 -19.66,-6.379 -19.66,-14.308 v -0.34 c 0,-9.316 5.52,-13.457 28.8,-18.977 25.51,-6.199 38.62,-15.339 38.62,-35.343 v -0.344 c 0,-22.586 -17.76,-36.043 -43.11,-36.043 -18.44,0 -35.86,6.387 -50.35,19.312"
         style="fill:#231f20;fill-opacity:1;fill-rule:nonzero;stroke:none"
         id="path92" /><path
         d="m 1212.21,290.609 c 15.18,0 24.83,7.934 24.83,20.168 v 0.352 c 0,12.93 -9.31,20 -25,20 h -30.86 v -40.52 z m -52.24,59.829 h 53.8 c 15.17,0 27.07,-4.485 34.82,-12.075 6.39,-6.543 10,-15.515 10,-26.035 v -0.34 c 0,-19.824 -11.89,-31.726 -28.61,-36.55 l 32.58,-45.696 h -25.17 l -29.66,42.071 h -26.55 v -42.071 h -21.21 v 120.696"
         style="fill:#231f20;fill-opacity:1;fill-rule:nonzero;stroke:none"
         id="path94" /><path
         d="m 1282.25,350.438 h 89.49 v -18.965 h -68.28 v -31.379 h 60.52 v -19.141 h -60.52 v -32.246 h 69.14 v -18.965 h -90.35 v 120.696"
         style="fill:#231f20;fill-opacity:1;fill-rule:nonzero;stroke:none"
         id="path96" /><path
         d="m 1387.5,247.328 12.76,15.18 c 11.55,-10 23.27,-15.695 38.11,-15.695 13.11,0 21.38,6.21 21.38,15.175 v 0.34 c 0,8.625 -4.83,13.281 -27.25,18.449 -25.69,6.211 -40.17,13.797 -40.17,36.036 v 0.351 c 0,20.684 17.24,35 41.2,35 17.59,0 31.57,-5.344 43.8,-15.176 l -11.37,-16.035 c -10.87,8.106 -21.73,12.41 -32.77,12.41 -12.41,0 -19.66,-6.375 -19.66,-14.304 v -0.34 c 0,-9.321 5.52,-13.457 28.8,-18.977 25.52,-6.199 38.63,-15.344 38.63,-35.344 v -0.339 c 0,-22.586 -17.77,-36.043 -43.11,-36.043 -18.45,0 -35.87,6.386 -50.35,19.312"
         style="fill:#231f20;fill-opacity:1;fill-rule:nonzero;stroke:none"
         id="path98" /><path
         d="m 1503.26,350.438 h 89.49 v -18.965 h -68.28 v -31.379 h 60.52 v -19.141 h -60.52 v -32.246 h 69.14 v -18.965 h -90.35 v 120.696"
         style="fill:#231f20;fill-opacity:1;fill-rule:nonzero;stroke:none"
         id="path100" /><path
         d="m 1690.85,277.672 -20.86,48.281 -20.69,-48.281 z m -30.34,73.633 h 19.66 l 53.1,-121.563 h -22.42 l -12.24,29.141 h -57.07 l -12.42,-29.141 h -21.72 l 53.11,121.563"
         style="fill:#231f20;fill-opacity:1;fill-rule:nonzero;stroke:none"
         id="path102" /><path
         d="m 1802.32,290.609 c 15.17,0 24.82,7.934 24.82,20.168 v 0.352 c 0,12.93 -9.31,20 -25,20 h -30.86 v -40.52 z m -52.25,59.829 h 53.8 c 15.17,0 27.07,-4.485 34.82,-12.075 6.39,-6.543 10,-15.515 10,-26.035 v -0.34 c 0,-19.824 -11.89,-31.726 -28.61,-36.55 l 32.59,-45.696 h -25.18 l -29.66,42.071 h -26.55 v -42.071 h -21.21 v 120.696"
         style="fill:#231f20;fill-opacity:1;fill-rule:nonzero;stroke:none"
         id="path104" /><path
         d="m 1864.67,289.742 v 0.352 c 0,34.304 25.68,62.414 62.07,62.414 22.41,0 35.86,-7.754 47.41,-18.789 l -13.61,-15.696 c -9.84,8.965 -20.01,14.825 -33.98,14.825 -22.75,0 -39.65,-18.789 -39.65,-42.41 v -0.344 c 0,-23.621 16.72,-42.766 39.83,-42.766 14.82,0 24.32,5.863 34.66,15.52 l 13.62,-13.797 c -12.59,-13.098 -26.39,-21.379 -48.97,-21.379 -35.35,0 -61.38,27.414 -61.38,62.07"
         style="fill:#231f20;fill-opacity:1;fill-rule:nonzero;stroke:none"
         id="path106" /><path
         d="m 1993.54,350.438 h 21.21 v -50.176 h 57.58 v 50.176 h 21.22 V 229.742 h -21.22 v 50.867 h -57.58 v -50.867 h -21.21 v 120.696"
         style="fill:#231f20;fill-opacity:1;fill-rule:nonzero;stroke:none"
         id="path108" /><path
         d="m 2224.32,321.813 v 0.351 c 0,8.106 -5.7,13.621 -13.63,13.621 -8.62,0 -14.48,-6.211 -14.48,-14.488 v -0.344 c 0,-6.035 2.41,-10.515 9.14,-17.93 12.41,4.485 18.97,10.176 18.97,18.79 z m 0.68,-65.696 -26.89,27.426 c -11.21,-4.836 -16.04,-12.246 -16.04,-20 v -0.352 c 0,-10.168 8.45,-17.589 20.18,-17.589 8.27,0 15.86,3.964 22.75,10.515 z m 12.07,-12.41 c -10.34,-9.656 -22.41,-15.691 -36.89,-15.691 -22.59,0 -39.66,13.621 -39.66,34.492 v 0.34 c 0,15.515 9.31,26.726 25.86,33.625 -6.9,8.965 -10,16.375 -10,25.175 v 0.34 c 0,16.375 13.1,30.52 34.66,30.52 19.14,0 32.07,-12.934 32.07,-29.145 v -0.34 c 0,-15.859 -10.52,-25.339 -26.56,-31.375 l 20.7,-21.039 c 4.48,6.899 8.96,14.829 12.93,23.274 l 16.03,-8.445 c -4.82,-9.661 -10.17,-19.141 -16.38,-27.415 l 19.15,-19.316 -15.87,-11.379 -16.04,16.379"
         style="fill:#231f20;fill-opacity:1;fill-rule:nonzero;stroke:none"
         id="path110" /><path
         d="m 2334.4,350.438 h 89.49 v -18.965 h -68.28 v -31.379 h 60.51 v -19.141 h -60.51 v -32.246 h 69.14 v -18.965 h -90.35 v 120.696"
         style="fill:#231f20;fill-opacity:1;fill-rule:nonzero;stroke:none"
         id="path112" /><path
         d="m 2469.03,331.129 v -82.078 h 23.79 c 25.35,0 41.91,17.066 41.91,40.691 v 0.352 c 0,23.625 -16.56,41.035 -41.91,41.035 z m -21.21,19.309 h 45 c 37.94,0 64.14,-26.04 64.14,-60 v -0.344 c 0,-33.977 -26.2,-60.352 -64.14,-60.352 h -45 v 120.696"
         style="fill:#231f20;fill-opacity:1;fill-rule:nonzero;stroke:none"
         id="path114" /><path
         d="m 2577.62,280.953 v 69.485 h 21.21 v -68.625 c 0,-22.415 11.55,-34.305 30.52,-34.305 18.79,0 30.34,11.199 30.34,33.445 v 69.485 h 21.21 v -68.45 c 0,-36.035 -20.35,-54.14 -51.9,-54.14 -31.38,0 -51.38,18.105 -51.38,53.105"
         style="fill:#231f20;fill-opacity:1;fill-rule:nonzero;stroke:none"
         id="path116" /><path
         d="m 2701.86,289.742 v 0.352 c 0,34.304 25.68,62.414 62.07,62.414 22.41,0 35.86,-7.754 47.41,-18.789 l -13.61,-15.696 c -9.84,8.965 -20.01,14.825 -33.98,14.825 -22.75,0 -39.66,-18.789 -39.66,-42.41 v -0.344 c 0,-23.621 16.73,-42.766 39.84,-42.766 14.82,0 24.31,5.863 34.65,15.52 l 13.63,-13.797 c -12.59,-13.098 -26.39,-21.379 -48.98,-21.379 -35.34,0 -61.37,27.414 -61.37,62.07"
         style="fill:#231f20;fill-opacity:1;fill-rule:nonzero;stroke:none"
         id="path118" /><path
         d="m 2904.52,277.672 -20.86,48.281 -20.69,-48.281 z m -30.34,73.633 h 19.66 l 53.1,-121.563 h -22.42 l -12.23,29.141 h -57.07 l -12.43,-29.141 h -21.71 l 53.1,121.563"
         style="fill:#231f20;fill-opacity:1;fill-rule:nonzero;stroke:none"
         id="path120" /><path
         d="m 2978.24,330.785 h -38.44 v 19.653 h 98.1 v -19.653 h -38.45 V 229.742 h -21.21 v 101.043"
         style="fill:#231f20;fill-opacity:1;fill-rule:nonzero;stroke:none"
         id="path122" /><path
         d="m 3055.89,350.438 h 21.2 V 229.742 h -21.2 v 120.696"
         style="fill:#231f20;fill-opacity:1;fill-rule:nonzero;stroke:none"
         id="path124" /><path
         d="m 3204.29,289.742 v 0.352 c 0,23.449 -17.07,42.754 -41.04,42.754 -23.96,0 -40.69,-18.965 -40.69,-42.41 v -0.344 c 0,-23.457 17.07,-42.766 41.04,-42.766 23.97,0 40.69,18.969 40.69,42.414 z m -103.97,0 v 0.352 c 0,33.965 26.2,62.414 63.28,62.414 37.07,0 62.93,-28.11 62.93,-62.07 v -0.344 c 0,-33.977 -26.21,-62.422 -63.28,-62.422 -37.07,0 -62.93,28.105 -62.93,62.07"
         style="fill:#231f20;fill-opacity:1;fill-rule:nonzero;stroke:none"
         id="path126" /><path
         d="m 3249.63,350.438 h 19.66 l 64.66,-83.45 v 83.45 h 20.86 V 229.742 h -17.76 l -66.56,85.867 v -85.867 h -20.86 v 120.696"
         style="fill:#231f20;fill-opacity:1;fill-rule:nonzero;stroke:none"
         id="path128" /></g></g></svg>
