<?xml version="1.0" encoding="UTF-8" standalone="no"?>
<!-- Created with Inkscape (http://www.inkscape.org/) -->

<svg
   width="336.67035"
   height="348.25171"
   viewBox="0 0 89.077368 92.141596"
   version="1.1"
   id="svg5"
   sodipodi:docname="duck_running_1.svg"
   inkscape:version="1.1.1 (1:1.1+202109281944+c3084ef5ed)"
   inkscape:export-filename="/home/hbarrett/one_team_challange.png"
   inkscape:export-xdpi="96"
   inkscape:export-ydpi="96"
   xmlns:inkscape="http://www.inkscape.org/namespaces/inkscape"
   xmlns:sodipodi="http://sodipodi.sourceforge.net/DTD/sodipodi-0.dtd"
   xmlns:xlink="http://www.w3.org/1999/xlink"
   xmlns="http://www.w3.org/2000/svg"
   xmlns:svg="http://www.w3.org/2000/svg">
  <g
     id="g1143"
     transform="matrix(0.70876234,0,0,0.70876234,-61.29777,-31.24469)">
    <path
       id="rect10087-5-4-8-4-3"
       style="fill:#fbb045;fill-opacity:1;stroke:#000005;stroke-width:1;stroke-linecap:round;stroke-linejoin:round;stroke-miterlimit:4;stroke-dasharray:none"
       d="m 154.7342,157.3749 10.9954,-17.21656 c 1.22828,-1.92322 3.82323,-2.56895 5.68861,-1.25437 l 17.50265,12.33401 c 1.86533,1.31449 3.12819,4.38622 1.25447,5.6886 l -19.86887,13.81021 c -1.87344,1.30295 -4.10301,2.89469 -5.68859,1.25446 l -8.62912,-8.92751 c -1.58591,-1.64082 -2.4827,-3.76537 -1.25439,-5.68864 z"
       sodipodi:nodetypes="sssssssss"
       inkscape:transform-center-x="-4.0956407"
       inkscape:transform-center-y="-3.0000232" />
    <path
       style="fill:#e9e0db;fill-opacity:1;stroke:#000000;stroke-width:1;stroke-linecap:butt;stroke-linejoin:miter;stroke-miterlimit:4;stroke-dasharray:none;stroke-opacity:1"
       d="m 141.61979,113.56037 c 20.7593,-47.947996 65.28776,-9.09903 68.10925,6.83659 2.43676,8.90763 -12.08453,13.69249 -12.44311,-2.42094 0.55779,17.85175 -11.8827,6.82105 -17.03262,-2.36746 5.92525,15.09018 -5.90826,11.66478 -10.2276,3.55203 -3.13461,7.11893 -6.5884,5.73123 -10.21637,-0.3055 -2.70777,4.06792 -6.35229,3.61541 -10.34536,1.48081 z"
       id="path887-4-0-94-9-2"
       sodipodi:nodetypes="cccccccc" />
    <path
       id="rect10087-5-4-8-0-5-71"
       style="fill:#fbb045;fill-opacity:1;stroke:#000005;stroke-width:1;stroke-linecap:round;stroke-linejoin:round;stroke-miterlimit:4;stroke-dasharray:none"
       d="m 111.32316,137.14975 16.36111,12.23204 c 1.82766,1.36641 2.28075,4.00183 0.83258,5.76545 l -13.58807,16.54797 c -1.44813,1.76357 -4.60445,2.79706 -5.76546,0.83258 L 96.852086,151.69687 c -1.161602,-1.96421 -2.585029,-4.30484 -0.832578,-5.76547 l 9.538062,-7.94903 c 1.75304,-1.46092 3.9378,-2.19902 5.7655,-0.83256 z"
       sodipodi:nodetypes="sssssssss"
       inkscape:transform-center-x="9.0423528"
       inkscape:transform-center-y="25.427266" />
    <ellipse
       style="fill:url(#radialGradient30852-7-0-2);fill-opacity:1;stroke:#000005;stroke-width:1;stroke-linecap:round;stroke-linejoin:round;stroke-miterlimit:4;stroke-dasharray:none"
       id="path11869-9-2-7"
       cx="-176.89719"
       cy="59.991467"
       rx="39.243885"
       ry="39.199108"
       transform="matrix(-0.92408271,-0.38219256,-0.38219256,0.92408271,0,0)" />
    <path
       id="rect10087-3-02-0"
       style="fill:#e1d8cf;fill-opacity:1;stroke:#000005;stroke-width:1;stroke-linecap:round;stroke-linejoin:round;stroke-miterlimit:4;stroke-dasharray:none"
       d="m 167.86321,80.769413 -18.8773,-7.807483 c -2.10874,-0.872156 -4.04324,0.383116 -5.38067,2.232103 l -7.27679,10.060304 c -1.33741,1.848987 0.93265,3.504801 2.23209,5.380665 3.08347,4.451279 16.79866,11.095808 24.19888,10.008448 2.25774,-0.33174 5.02131,0.0214 5.38066,-2.232097 l 1.95522,-12.261265 c 0.35933,-2.25352 -0.12336,-4.508518 -2.23209,-5.380675 z"
       sodipodi:nodetypes="sssssssss" />
    <ellipse
       style="fill:url(#radialGradient1143-4-13-4);fill-opacity:1;stroke:#000005;stroke-width:1;stroke-linecap:round;stroke-linejoin:round;stroke-miterlimit:4;stroke-dasharray:none"
       id="path858-6-9-4"
       cx="-174.14267"
       cy="-46.060574"
       rx="22.05242"
       ry="28.199713"
       transform="matrix(-0.78905058,-0.61432824,-0.61432824,0.78905058,0,0)" />
    <path
       style="fill:#e9e0db;fill-opacity:1;stroke:#000000;stroke-width:1;stroke-linecap:butt;stroke-linejoin:miter;stroke-miterlimit:4;stroke-dasharray:none;stroke-opacity:1"
       d="m 152.80865,104.85948 c 2.99924,52.35334 -54.312043,30.91029 -64.004997,16.83417 -6.187129,-7.57432 4.650846,-17.0554 12.220507,-1.96936 -8.529882,-16.65864 7.56152,-10.50078 16.30215,-3.58901 -12.08919,-12.21698 0.0378,-13.02985 7.5515,-6.84944 -0.39838,-7.79093 3.31559,-7.66203 9.27684,-3.20468 0.59232,-4.76529 4.05621,-5.58428 8.58864,-4.93479 z"
       id="path887-4-0-94-5"
       sodipodi:nodetypes="cccccccc" />
    <path
       id="rect5654-8-0-0-0"
       style="fill:#fbb045;stroke:#000005;stroke-width:1;stroke-linecap:round;stroke-linejoin:round;stroke-miterlimit:4;stroke-dasharray:none;stroke-opacity:1"
       d="m 186.07402,75.862575 -4.15524,0.163824 c -1.94923,0.07685 -1.6007,2.203374 -3.42017,2.632189 l -6.46681,1.524105 c 4.02639,23.986797 35.45242,1.399413 31.3947,-1.121504 l -13.73568,-0.843874 c -1.90385,-0.116962 -1.66756,-2.431593 -3.61679,-2.354746 z"
       sodipodi:nodetypes="cssccssc" />
    <path
       id="rect5654-2-9-8"
       style="fill:#fbb045;stroke:#000005;stroke-width:1;stroke-linecap:round;stroke-linejoin:round;stroke-miterlimit:4;stroke-dasharray:none;stroke-opacity:1"
       d="m 191.34528,66.045084 -10.53554,0.415364 c -2.26312,0.08922 -2.65695,2.715613 -3.93103,4.067883 l -9.63652,3.201398 c 2.01285,25.628996 55.03766,8.726473 42.51501,-1.178443 L 197.68422,67.84206 c -0.66243,-0.258386 -4.07583,-1.886208 -6.33894,-1.796976 z"
       sodipodi:nodetypes="sscccsss" />
    <ellipse
       style="fill:#000000;fill-opacity:1;stroke:none;stroke-width:1;stroke-linecap:round;stroke-linejoin:round;stroke-miterlimit:4;stroke-dasharray:none"
       id="path5235-5-1"
       cx="-194.93573"
       cy="8.9551497"
       rx="6.1790543"
       ry="9.9979191"
       transform="matrix(-0.95895618,-0.28355432,-0.28355432,0.95895618,0,0)" />
    <ellipse
       style="fill:#ffffff;fill-opacity:1;stroke:none;stroke-width:1;stroke-linecap:round;stroke-linejoin:round;stroke-miterlimit:4;stroke-dasharray:none"
       id="path5235-0-1-6"
       cx="-195.79652"
       cy="7.2686276"
       rx="4.041522"
       ry="6.5393195"
       transform="matrix(-0.95895618,-0.28355432,-0.28355432,0.95895618,0,0)" />
    <ellipse
       style="fill:#000001;fill-opacity:1;stroke:none;stroke-width:1;stroke-linecap:round;stroke-linejoin:round;stroke-miterlimit:4;stroke-dasharray:none"
       id="path8608-0-6"
       cx="-3.7843714"
       cy="-197.36484"
       rx="3.7034023"
       ry="2.2778642"
       transform="matrix(0.29542208,-0.95536684,-0.95536684,-0.29542208,0,0)" />
    <circle
       style="fill:#ffffff;fill-opacity:1;stroke:none;stroke-width:1;stroke-linecap:round;stroke-linejoin:round;stroke-miterlimit:4;stroke-dasharray:none"
       id="path8866-3-2"
       cx="-196.17494"
       cy="4.7941279"
       r="0.71971142"
       transform="matrix(-0.95895618,-0.28355432,-0.28355432,0.95895618,0,0)" />
  </g>
  <sodipodi:namedview
     id="namedview1044"
     pagecolor="#ffffff"
     bordercolor="#666666"
     borderopacity="1.0"
     inkscape:pageshadow="2"
     inkscape:pageopacity="0.0"
     inkscape:pagecheckerboard="0"
     inkscape:document-units="mm"
     showgrid="false"
     inkscape:snap-global="false"
     inkscape:zoom="0.66368548"
     inkscape:cx="207.17645"
     inkscape:cy="237.3112"
     inkscape:window-width="1852"
     inkscape:window-height="1016"
     inkscape:window-x="68"
     inkscape:window-y="324"
     inkscape:window-maximized="1"
     inkscape:current-layer="svg5"
     fit-margin-top="0"
     fit-margin-left="0"
     fit-margin-right="0"
     fit-margin-bottom="0"
     units="px" />
  <defs
     id="defs2">
    <linearGradient
       inkscape:collect="always"
       id="linearGradient1141">
      <stop
         style="stop-color:#77d778;stop-opacity:1"
         offset="0"
         id="stop1137" />
      <stop
         style="stop-color:#008000;stop-opacity:1"
         offset="1"
         id="stop1139" />
    </linearGradient>
    <radialGradient
       inkscape:collect="always"
       xlink:href="#linearGradient17168"
       id="radialGradient30852-7-0-2"
       cx="155.42276"
       cy="93.328453"
       fx="155.42276"
       fy="93.328453"
       r="16.145662"
       gradientTransform="matrix(3.136026,1.6661556,-2.0101914,2.0099374,-478.65838,-407.05426)"
       gradientUnits="userSpaceOnUse" />
    <radialGradient
       inkscape:collect="always"
       xlink:href="#linearGradient1141"
       id="radialGradient1143-4-13-4"
       cx="167.6855"
       cy="71.051056"
       fx="167.6855"
       fy="71.051056"
       r="9.6908875"
       gradientTransform="matrix(1.0740798,-0.52018848,0.69228392,0.89281573,-395.76095,-43.325032)"
       gradientUnits="userSpaceOnUse" />
    <radialGradient
       xlink:href="#linearGradient17168"
       id="radialGradient30852-3"
       cx="155.797"
       cy="95.211838"
       fx="155.797"
       fy="95.211838"
       r="16.145662"
       gradientTransform="matrix(-1.395418,-2.0050464,2.2874852,-0.61031229,-261.67465,656.04684)"
       gradientUnits="userSpaceOnUse" />
    <linearGradient
       id="linearGradient17168">
      <stop
         style="stop-color:#ada59b;stop-opacity:1"
         offset="0"
         id="stop17164" />
      <stop
         style="stop-color:#554643;stop-opacity:1"
         offset="1"
         id="stop17166" />
    </linearGradient>
    <radialGradient
       xlink:href="#linearGradient1141"
       id="radialGradient1143-8"
       cx="162.1685"
       cy="63.343479"
       fx="162.1685"
       fy="63.343479"
       r="9.6908875"
       gradientTransform="matrix(0.93574651,-0.57343144,0.60312299,0.98419825,-446.40108,245.17319)"
       gradientUnits="userSpaceOnUse" />
  </defs>
</svg>
