<?xml version="1.0" encoding="UTF-8" standalone="no"?>
<svg
   height="55.54203"
   viewBox="0 0 365.05495 55.542019"
   width="365.06021"
   version="1.1"
   id="svg10"
   sodipodi:docname="EDAC_UNM_logo_Dark_background_right_alligned_text.svg"
   inkscape:version="1.1.1 (1:1.1+202109281949+c3084ef5ed)"
   inkscape:export-filename="/home/teshelman/Desktop/Work/graphics/EDAC_UNM_logo.png"
   inkscape:export-xdpi="200"
   inkscape:export-ydpi="200"
   xmlns:inkscape="http://www.inkscape.org/namespaces/inkscape"
   xmlns:sodipodi="http://sodipodi.sourceforge.net/DTD/sodipodi-0.dtd"
   xmlns="http://www.w3.org/2000/svg"
   xmlns:svg="http://www.w3.org/2000/svg">
  <defs
     id="defs14" />
  <sodipodi:namedview
     id="namedview12"
     pagecolor="#505050"
     bordercolor="#eeeeee"
     borderopacity="1"
     inkscape:pageshadow="0"
     inkscape:pageopacity="0"
     inkscape:pagecheckerboard="0"
     showgrid="false"
     inkscape:snap-midpoints="true"
     inkscape:snap-object-midpoints="true"
     inkscape:snap-center="true"
     inkscape:snap-bbox="true"
     inkscape:snap-bbox-edge-midpoints="true"
     inkscape:snap-others="false"
     fit-margin-top="0"
     fit-margin-left="0"
     fit-margin-right="0"
     fit-margin-bottom="0"
     inkscape:zoom="1.7628558"
     inkscape:cx="128.4847"
     inkscape:cy="53.038938"
     inkscape:window-width="1852"
     inkscape:window-height="1016"
     inkscape:window-x="68"
     inkscape:window-y="27"
     inkscape:window-maximized="1"
     inkscape:current-layer="svg10" />
  <path
     d="m 16.942298,0 v 5.41025 h 3.8085 c 0.2875,0 0.52245,0.23008 0.52245,0.51757 v 9.624 l 7.3975,6.61625 V 5.92782 c 0,-0.2875 0.23007,-0.51757 0.51757,-0.51757 h 3.8085 V 0 h -16.05475 z m 34.12,0 v 5.41025 h 3.8085 c 0.2875,0 0.5207,0.23008 0.51757,0.51757 v 10.77625 l 3.6915,4.873 3.706,-4.8925 V 5.92782 c 0,-0.2875 0.23495,-0.51757 0.52245,-0.51757 h 3.8135 V 0 h -16.0595 z M -1.975307e-4,9.90725 V 15.3175 H 3.8083023 c 0.28437,0 0.51757,0.23808 0.51757,0.52245 V 37.2267 c 0,0.2875 -0.2332,0.52245 -0.51757,0.52245 H -1.975307e-4 V 43.1594 H 15.820048 v -5.41025 h -3.584 c -0.28438,0 -0.51758,-0.23495 -0.51758,-0.52245 V 19.54595 l 26.41,23.61325 h 7.705 V 19.57045 l 13.247,17.495 13.24225,-17.495 V 37.2267 c 0,0.2875 -0.23007,0.52245 -0.51757,0.52245 h -3.584 v 5.41025 h 15.83 v -5.41025 h -3.8135 c -0.2875,0 -0.51758,-0.23495 -0.51758,-0.52245 V 15.83995 c 0,-0.28438 0.23008,-0.52245 0.51758,-0.52245 h 3.8135 V 9.90725 h -13.68175 l -11.289,14.912 -11.289,-14.912 h -13.68175 v 5.41025 h 3.8085 c 0.28437,0 0.52245,0.23808 0.52245,0.52245 V 33.5207 L 12.025598,9.90545 H -0.00189753 Z M 21.288798,30.72275 v 15.376 c 0,0.225 0.0774,0.45665 0.21484,0.63477 4.7625,6.228 12.72725,8.8085 20.52725,8.8085 7.8,0 15.76475,-2.5805 20.52725,-8.8085 0.14063,-0.17812 0.21485,-0.40977 0.21485,-0.63477 V 35.425 l -3.6915,4.88275 -3.70125,-4.88775 v 9.13575 c 0,0.20312 -0.0808,0.4 -0.2246,0.54687 -1.58437,1.59688 -6.3155,4.6485 -13.125,4.6485 -6.8095,0 -11.5405,-3.0515 -13.125,-4.6485 -0.14375,-0.14687 -0.21972,-0.34375 -0.21972,-0.54687 V 37.334 l -7.3975,-6.61125 z"
     fill="#ba0c2f"
     id="path2-7"
     style="stroke-width:2.5" />
  <text
     xml:space="preserve"
     style="font-size:21.3333px;line-height:1.25;font-family:'Vitesse Sans';-inkscape-font-specification:'Vitesse Sans';letter-spacing:0px;word-spacing:0px;fill:#63666a;fill-opacity:0.952941;stroke:none;stroke-opacity:1"
     x="96.301819"
     y="33.936333"
     id="text4004"><tspan
       sodipodi:role="line"
       id="tspan4002"
       x="96.301819"
       y="33.936333"
       style="font-size:21.3333px;fill:#ffffff;fill-opacity:0.952941;stroke:none;stroke-opacity:1">Earth Data Analysis Center</tspan></text>
</svg>
